<svg version="1.1" id="Layer_1" xmlns="http://www.w3.org/2000/svg" xmlns:xlink="http://www.w3.org/1999/xlink" x="0px" y="0px"
	 width="100%" viewBox="0 0 482 477" enable-background="new 0 0 482 477" xml:space="preserve">
<path fill="#FEFFFF" opacity="1.000000" stroke="none" 
	d="
M273.000000,478.000000 
	C182.000000,478.000000 91.500000,478.000000 1.000000,478.000000 
	C1.000000,319.000000 1.000000,160.000000 1.000000,1.000000 
	C161.666672,1.000000 322.333344,1.000000 483.000000,1.000000 
	C483.000000,160.000000 483.000000,319.000000 483.000000,478.000000 
	C413.166656,478.000000 343.333344,478.000000 273.000000,478.000000 
M238.494293,129.943848 
	C238.256317,129.822495 238.012802,129.810226 237.407349,129.094864 
	C231.654434,67.012215 172.275330,24.586086 111.654190,38.960827 
	C66.325287,49.709412 32.040966,92.844177 33.215378,138.833694 
	C33.439659,142.140884 33.490757,145.470459 33.914478,148.751892 
	C39.341400,190.779724 62.011292,219.451370 101.302780,234.902039 
	C108.298332,237.652893 115.832443,239.034180 122.744408,241.764786 
	C69.430145,249.676895 32.497910,293.785767 34.034935,347.712219 
	C35.481094,398.450592 76.124435,440.565002 128.799545,445.710632 
	C134.923737,445.502502 141.107880,445.770630 147.162384,445.008728 
	C185.909882,440.132843 213.761215,419.789337 229.726715,384.319824 
	C234.402649,373.931549 235.833237,362.082489 238.892136,351.768219 
	C245.213089,416.610352 307.280151,458.927155 369.751648,440.987122 
	C412.870117,428.604797 444.723541,385.943878 442.990326,342.144897 
	C442.699036,338.004150 442.590057,333.841156 442.088226,329.726074 
	C437.087097,288.714478 406.569336,254.122543 366.568237,244.073135 
	C361.276672,242.743729 355.949188,241.557297 351.519775,240.139313 
	C414.634552,234.138519 457.264801,169.676666 438.517181,108.683388 
	C424.864105,64.264717 383.841858,36.004227 340.132172,36.114666 
	C287.564209,36.276520 243.356522,77.237762 238.494293,129.943848 
z"/>
<path fill="#010101" opacity="1.000000" stroke="none" 
	d="
M442.869263,343.061707 
	C444.723541,385.943878 412.870117,428.604797 369.751648,440.987122 
	C307.280151,458.927155 245.213089,416.610352 238.910248,350.921417 
	C238.924606,347.752411 238.920853,345.430206 239.392944,343.070374 
	C245.692947,343.030670 251.517151,343.038239 257.341309,343.024902 
	C285.125977,342.961334 312.910675,342.892090 341.176453,342.910522 
	C375.394806,343.018005 409.132050,343.039856 442.869263,343.061707 
z"/>
<path fill="#010101" opacity="1.000000" stroke="none" 
	d="
M128.165955,445.250214 
	C76.124435,440.565002 35.481094,398.450592 34.034935,347.712219 
	C32.497910,293.785767 69.430145,249.676895 123.386246,241.386383 
	C127.957161,241.008316 131.886230,241.008636 135.885529,241.476593 
	C135.963104,245.429504 135.970917,248.914764 135.977753,252.400040 
	C136.036316,282.269745 136.094711,312.139435 136.079193,342.251190 
	C136.052521,342.655182 136.099838,342.817139 136.075134,343.444183 
	C136.003082,377.564850 136.003082,411.220459 136.003082,445.250214 
	C133.058014,445.250214 130.611984,445.250214 128.165955,445.250214 
z"/>
<path fill="#000101" opacity="1.000000" stroke="none" 
	d="
M341.003784,36.274715 
	C383.841858,36.004227 424.864105,64.264717 438.517181,108.683388 
	C457.264801,169.676666 414.634552,234.138519 350.723724,240.129486 
	C346.972198,240.327408 344.016693,240.535187 341.001892,240.298737 
	C340.925995,236.370270 340.900391,232.886047 340.894348,229.401810 
	C340.842072,199.204971 340.793365,169.008133 340.824463,138.361298 
	C340.938141,104.032425 340.970978,70.153572 341.003784,36.274715 
z"/>
<path fill="#010101" opacity="1.000000" stroke="none" 
	d="
M33.415470,137.971237 
	C32.040966,92.844177 66.325287,49.709412 111.654190,38.960827 
	C172.275330,24.586086 231.654434,67.012215 237.470612,129.879150 
	C237.646500,133.091095 237.759125,135.518753 237.414871,138.005219 
	C229.804169,138.082336 222.650345,138.100449 215.496521,138.118973 
	C189.047699,138.187439 162.598877,138.256042 135.679352,138.237564 
	C101.277580,138.090775 67.346527,138.031006 33.415470,137.971237 
z"/>
<path fill="#48C4D3" opacity="1.000000" stroke="none" 
	d="
M33.315422,138.402466 
	C67.346527,138.031006 101.277580,138.090775 135.701584,138.685059 
	C136.176086,168.999359 136.169861,198.779129 136.125137,228.558868 
	C136.118912,232.709045 135.923248,236.858932 135.815292,241.008957 
	C131.886230,241.008636 127.957161,241.008316 123.572983,241.027924 
	C115.832443,239.034180 108.298332,237.652893 101.302780,234.902039 
	C62.011292,219.451370 39.341400,190.779724 33.914478,148.751892 
	C33.490757,145.470459 33.439659,142.140884 33.315422,138.402466 
z"/>
<path fill="#49C4D3" opacity="1.000000" stroke="none" 
	d="
M128.482758,445.480408 
	C130.611984,445.250214 133.058014,445.250214 136.003082,445.250214 
	C136.003082,411.220459 136.003082,377.564850 136.286621,343.431915 
	C136.570160,342.954590 136.975220,342.829834 137.441360,342.894592 
	C152.351059,342.971527 166.794693,343.019440 181.238159,342.987061 
	C200.158096,342.944611 219.077896,342.838745 238.239594,342.781128 
	C238.481415,342.802124 238.955414,342.697235 239.029327,342.807709 
	C239.103226,342.918182 238.917114,343.108002 238.917114,343.108002 
	C238.920853,345.430206 238.924606,347.752411 238.839828,350.488770 
	C235.833237,362.082489 234.402649,373.931549 229.726715,384.319824 
	C213.761215,419.789337 185.909882,440.132843 147.162384,445.008728 
	C141.107880,445.770630 134.923737,445.502502 128.482758,445.480408 
z"/>
<path fill="#48C4D3" opacity="1.000000" stroke="none" 
	d="
M340.567993,36.194691 
	C340.970978,70.153572 340.938141,104.032425 340.374207,138.354156 
	C308.130219,138.760544 276.417297,138.734741 244.704483,138.661850 
	C242.752792,138.657364 240.801971,138.281464 238.898987,137.628769 
	C238.920776,134.766953 238.894333,132.354736 238.867859,129.942520 
	C243.356522,77.237762 287.564209,36.276520 340.567993,36.194691 
z"/>
<path fill="#48C4D3" opacity="1.000000" stroke="none" 
	d="
M341.061218,240.742966 
	C344.016693,240.535187 346.972198,240.327408 350.283020,240.212158 
	C355.949188,241.557297 361.276672,242.743729 366.568237,244.073135 
	C406.569336,254.122543 437.087097,288.714478 442.088226,329.726074 
	C442.590057,333.841156 442.699036,338.004150 442.929810,342.603302 
	C409.132050,343.039856 375.394806,343.018005 341.178406,342.451782 
	C340.701538,310.167297 340.697510,278.427124 340.721405,246.686996 
	C340.722900,244.705566 340.942902,242.724304 341.061218,240.742966 
z"/>
<path fill="#BFDFE2" opacity="1.000000" stroke="none" 
	d="
M238.681091,129.943176 
	C238.894333,132.354736 238.920776,134.766953 238.649918,137.630096 
	C238.352600,138.081039 237.871750,137.946411 237.871750,137.946411 
	C237.759125,135.518753 237.646500,133.091095 237.648834,130.285233 
	C238.012802,129.810226 238.256317,129.822495 238.681091,129.943176 
z"/>
<path fill="#FEFEFE" opacity="1.000000" stroke="none" 
	d="
M237.414871,138.005219 
	C237.871750,137.946411 238.352600,138.081039 238.601669,138.079712 
	C240.801971,138.281464 242.752792,138.657364 244.704483,138.661850 
	C276.417297,138.734741 308.130219,138.760544 340.293335,138.804153 
	C340.793365,169.008133 340.842072,199.204971 340.894348,229.401810 
	C340.900391,232.886047 340.925995,236.370270 341.001892,240.298737 
	C340.942902,242.724304 340.722900,244.705566 340.721405,246.686996 
	C340.697510,278.427124 340.701538,310.167297 340.697266,342.366150 
	C312.910675,342.892090 285.125977,342.961334 257.341309,343.024902 
	C251.517151,343.038239 245.692947,343.030670 239.392944,343.070374 
	C238.917114,343.108002 239.103226,342.918182 239.046112,342.489105 
	C238.908249,341.324890 238.827499,340.589752 238.746735,339.854614 
	C238.497086,339.866760 238.247421,339.878937 237.997757,339.891083 
	C237.997757,340.847443 237.997757,341.803802 237.997757,342.760162 
	C219.077896,342.838745 200.158096,342.944611 181.238159,342.987061 
	C166.794693,343.019440 152.351059,342.971527 137.347977,342.718445 
	C136.622696,342.259033 136.410934,342.102905 136.153168,342.009125 
	C136.094711,312.139435 136.036316,282.269745 135.977753,252.400040 
	C135.970917,248.914764 135.963104,245.429504 135.885529,241.476593 
	C135.923248,236.858932 136.118912,232.709045 136.125137,228.558868 
	C136.169861,198.779129 136.176086,168.999359 136.172302,138.772095 
	C162.598877,138.256042 189.047699,138.187439 215.496521,138.118973 
	C222.650345,138.100449 229.804169,138.082336 237.414871,138.005219 
M328.464783,239.437485 
	C327.449432,239.324982 326.434113,239.212479 324.814911,239.297211 
	C324.203369,239.151001 323.591858,239.004807 322.468201,238.364746 
	C321.530823,238.282150 320.593445,238.199554 318.881897,238.188843 
	C309.018738,234.380234 298.414398,231.828705 289.429199,226.530991 
	C260.673523,209.576370 243.685425,184.294739 239.742584,150.179672 
	C239.567795,149.792725 239.393005,149.405762 239.023376,148.406586 
	C239.000336,147.978928 238.977280,147.551285 238.921509,146.535156 
	C238.511841,146.193802 238.102158,145.852432 237.692490,145.511078 
	C237.807053,146.012192 237.921616,146.513321 237.927597,147.829941 
	C233.561142,192.461594 200.122604,233.359604 145.812927,240.602463 
	C199.206970,250.291397 229.783890,281.117065 238.784775,334.217041 
	C240.721390,315.820526 246.177032,299.546997 256.358795,285.166290 
	C273.945435,260.326874 297.584930,245.197174 328.838135,241.786804 
	C329.356842,241.605728 329.875549,241.424667 330.394287,241.243622 
	C329.922211,240.841599 329.450134,240.439590 328.993286,240.005447 
	C328.993286,240.005447 328.960876,240.020157 328.464783,239.437485 
M334.756592,240.971329 
	C335.191498,240.847046 335.626404,240.722763 336.061310,240.598495 
	C335.971680,240.367081 335.882080,240.135666 335.792450,239.904251 
	C335.272766,240.232300 334.753082,240.560364 334.756592,240.971329 
M140.825500,241.245651 
	C140.880692,241.412125 140.935883,241.578598 140.991074,241.745071 
	C141.044891,241.577591 141.098709,241.410110 140.825500,241.245651 
z"/>
<path fill="#FEFEFE" opacity="1.000000" stroke="none" 
	d="
M136.079193,342.251190 
	C136.410934,342.102905 136.622696,342.259033 136.881836,342.653687 
	C136.975220,342.829834 136.570160,342.954590 136.358673,342.966858 
	C136.099838,342.817139 136.052521,342.655182 136.079193,342.251190 
z"/>
<path fill="#FEFEFE" opacity="1.000000" stroke="none" 
	d="
M238.239594,342.781128 
	C237.997757,341.803802 237.997757,340.847443 237.997757,339.891083 
	C238.247421,339.878937 238.497086,339.866760 238.746735,339.854614 
	C238.827499,340.589752 238.908249,341.324890 238.972198,342.378632 
	C238.955414,342.697235 238.481415,342.802124 238.239594,342.781128 
z"/>
<path fill="#020202" opacity="1.000000" stroke="none" 
	d="
M238.954239,147.123627 
	C238.977280,147.551285 239.000336,147.978928 239.063629,149.031219 
	C239.264481,150.043472 239.425079,150.431076 239.585678,150.818695 
	C243.685425,184.294739 260.673523,209.576370 289.429199,226.530991 
	C298.414398,231.828705 309.018738,234.380234 319.541809,238.378174 
	C321.127899,238.664536 322.054108,238.761566 322.980316,238.858597 
	C323.591858,239.004807 324.203369,239.151001 325.413818,239.434113 
	C326.995453,239.720734 327.978180,239.870438 328.960876,240.020142 
	C328.960876,240.020157 328.993286,240.005447 328.966675,240.329987 
	C328.673553,240.967178 328.407013,241.279846 328.140442,241.592499 
	C297.584930,245.197174 273.945435,260.326874 256.358795,285.166290 
	C246.177032,299.546997 240.721390,315.820526 238.784775,334.217041 
	C229.783890,281.117065 199.206970,250.291397 145.812927,240.602463 
	C200.122604,233.359604 233.561142,192.461594 238.215210,147.417511 
	C238.502808,147.005081 238.954239,147.123627 238.954239,147.123627 
z"/>
<path fill="#FEFEFE" opacity="1.000000" stroke="none" 
	d="
M328.489288,241.689667 
	C328.407013,241.279846 328.673553,240.967178 328.959076,240.346039 
	C329.450134,240.439590 329.922211,240.841599 330.394287,241.243622 
	C329.875549,241.424667 329.356842,241.605728 328.489288,241.689667 
z"/>
<path fill="#FEFEFE" opacity="1.000000" stroke="none" 
	d="
M334.494995,240.929871 
	C334.753082,240.560364 335.272766,240.232300 335.792450,239.904251 
	C335.882080,240.135666 335.971680,240.367081 336.061310,240.598495 
	C335.626404,240.722763 335.191498,240.847046 334.494995,240.929871 
z"/>
<path fill="#FEFEFE" opacity="1.000000" stroke="none" 
	d="
M238.937866,146.829391 
	C238.954239,147.123627 238.502808,147.005081 238.269485,147.009766 
	C237.921616,146.513321 237.807053,146.012192 237.692490,145.511078 
	C238.102158,145.852432 238.511841,146.193802 238.937866,146.829391 
z"/>
<path fill="#FEFEFE" opacity="1.000000" stroke="none" 
	d="
M328.712830,239.728821 
	C327.978180,239.870438 326.995453,239.720734 325.715759,239.335510 
	C326.434113,239.212479 327.449432,239.324982 328.712830,239.728821 
z"/>
<path fill="#FEFEFE" opacity="1.000000" stroke="none" 
	d="
M322.724243,238.611664 
	C322.054108,238.761566 321.127899,238.664536 319.928894,238.342224 
	C320.593445,238.199554 321.530823,238.282150 322.724243,238.611664 
z"/>
<path fill="#FEFEFE" opacity="1.000000" stroke="none" 
	d="
M140.989014,241.244141 
	C141.098709,241.410110 141.044891,241.577591 140.991074,241.745071 
	C140.935883,241.578598 140.880692,241.412125 140.989014,241.244141 
z"/>
<path fill="#FEFEFE" opacity="1.000000" stroke="none" 
	d="
M239.664124,150.499176 
	C239.425079,150.431076 239.264481,150.043472 239.161057,149.337341 
	C239.393005,149.405762 239.567795,149.792725 239.664124,150.499176 
z"/>
</svg>